HIERARCHY
ROOT Hips
{
	OFFSET 0.000000 0.000000 0.000000
	CHANNELS 6 Xposition Yposition Zposition Zrotation Yrotation Xrotation 
	JOINT LHipJoint
	{
		OFFSET 0.000000 0.000000 0.000000
		CHANNELS 3 Zrotation Yrotation Xrotation
		JOINT LeftUpLeg
		{
			OFFSET 1.363060 -1.794630 0.839290
			CHANNELS 3 Zrotation Yrotation Xrotation
			JOINT LeftLeg
			{
				OFFSET 2.448110 -6.726130 0.000000
				CHANNELS 3 Zrotation Yrotation Xrotation
				JOINT LeftFoot
				{
					OFFSET 2.562200 -7.039590 0.000000
					CHANNELS 3 Zrotation Yrotation Xrotation
					JOINT LeftToeBase
					{
						OFFSET 0.157640 -0.433110 2.322550
						CHANNELS 3 Zrotation Yrotation Xrotation
						End Site
						{
							OFFSET 0.000000 0.000000 0.000000
						}
					}
				}
			}
		}
	}
	JOINT RHipJoint
	{
		OFFSET 0.000000 0.000000 0.000000
		CHANNELS 3 Zrotation Yrotation Xrotation
		JOINT RightUpLeg
		{
			OFFSET -1.305520 -1.794630 0.839290
			CHANNELS 3 Zrotation Yrotation Xrotation
			JOINT RightLeg
			{
				OFFSET -2.542530 -6.985550 0.000000
				CHANNELS 3 Zrotation Yrotation Xrotation
				JOINT RightFoot
				{
					OFFSET -2.568260 -7.056230 0.000000
					CHANNELS 3 Zrotation Yrotation Xrotation
					JOINT RightToeBase
					{
						OFFSET -0.164730 -0.452590 2.363150
						CHANNELS 3 Zrotation Yrotation Xrotation
						End Site
						{
							OFFSET 0.000000 0.000000 0.000000
						}
					}
				}
			}
		}
	}
}
MOTION
Frames: 33
Frame Time: 0.008333
0.516043 16.386370 -0.475154 -132.030864 79.698301 -105.896346 -13.669897 1.137173 -2.697889 -6.164285 0.713797 -9.698923 -0.235211 1.878813 36.508082 0.798919 3.751253 -0.023736 0.379300 0.000000 -61.126000 5.580007 -0.653647 1.011480 10.013418 12.320450 -49.630419 3.149162 -2.169884 29.923557 1.411700 9.248701 1.076912 1.197000 0.000000 -53.561300
0.685884 16.372542 -0.513633 -132.724933 79.068577 -106.695501 -13.934562 1.053693 -2.879604 -5.535605 1.640028 -10.735138 -0.063509 2.050058 39.057716 0.968265 4.929956 0.719918 0.549500 0.000000 -58.094600 5.439935 -0.756493 0.917219 10.633680 12.524462 -49.366410 3.087442 -2.271233 31.511235 1.240159 8.385742 -0.404195 0.888599 0.000000 -53.019301
0.852762 16.367202 -0.550128 -133.870125 78.434234 -107.908986 -14.169558 0.951852 -3.054610 -4.988997 2.519170 -11.910273 0.102374 2.216863 41.659043 1.188222 6.497721 1.325559 0.794200 0.000000 -53.636400 5.313455 -0.844852 0.837928 11.175027 12.667946 -48.966283 3.045046 -2.326876 32.722526 1.053163 7.480245 -1.892064 0.619500 -0.000000 -52.800300
1.016970 16.370021 -0.584752 -135.387507 77.805066 -109.452518 -14.371714 0.835459 -3.217362 -4.547156 3.335433 -13.211777 0.252672 2.378887 44.269409 1.451593 8.395505 1.685581 1.100600 0.000000 -47.430400 5.205308 -0.918398 0.774099 11.621499 12.741379 -48.459798 3.016643 -2.343792 33.580089 0.859740 6.575911 -3.283816 0.404800 0.000000 -52.798200
1.178758 16.380714 -0.617605 -137.193930 77.190496 -111.238734 -14.538059 0.709845 -3.362903 -4.227984 4.073300 -14.620169 0.382632 2.535551 46.822618 1.748807 10.535466 1.777432 1.442700 0.000000 -40.090100 5.120975 -0.976605 0.723820 11.961774 12.736992 -47.877584 2.996247 -2.329546 34.116923 0.670776 5.712583 -4.487553 0.247600 -0.000000 -52.918600
1.338335 16.398886 -0.649234 -139.198996 76.595407 -113.172508 -14.668591 0.580633 -3.485586 -4.038852 4.715666 -16.118549 0.490476 2.686291 49.261624 2.065680 12.793712 1.609135 1.780900 0.000000 -32.276300 5.063395 -1.020781 0.685095 12.193444 12.651300 -47.252116 2.979026 -2.291732 34.372404 0.497687 4.923372 -5.429598 0.141100 0.000000 -53.100200
1.495907 16.424227 -0.680145 -141.322848 76.025187 -115.169293 -14.763187 0.452775 -3.579337 -3.983675 5.239075 -17.686753 0.580606 2.828529 51.530300 2.388186 15.048716 1.303980 2.095900 0.000000 -25.388300 5.035581 -1.052123 0.653988 12.318628 12.481357 -46.614939 2.961389 -2.238087 34.391403 0.350948 4.236329 -6.062547 0.073100 0.000000 -53.316400
1.651467 16.456301 -0.710940 -143.494096 75.486619 -117.156794 -14.823408 0.331015 -3.640565 -4.062553 5.628882 -19.309559 0.656730 2.960261 53.604028 2.698885 17.173487 0.960268 2.376000 0.000001 -20.270300 5.038724 -1.072219 0.626523 12.344288 12.225086 -45.994432 2.941455 -2.175902 34.223464 0.238727 3.674803 -6.370047 0.030701 0.000000 -53.567200
1.804987 16.494721 -0.742347 -145.646347 74.982321 -119.071027 -14.850769 0.218300 -3.671632 -4.267817 5.891170 -20.979359 0.719108 3.081069 55.483626 2.977657 19.038854 0.575579 2.593200 0.000000 -16.706800 5.072731 -1.083771 0.599566 12.284289 11.883839 -45.411923 2.919367 -2.111607 33.915121 0.165300 3.253025 -6.363994 0.003400 -0.000000 -53.865400
1.956423 16.539026 -0.774873 -147.723315 74.516321 -120.863273 -14.847795 0.115656 -3.678264 -4.585315 6.044417 -22.686164 0.768061 3.190870 57.170727 3.208516 20.545659 0.138148 2.722500 -0.000000 -14.290500 5.135150 -1.089524 0.569849 12.157594 11.463650 -44.877249 2.896603 -2.050038 33.507260 0.130759 2.975722 -6.081027 -0.014300 0.000000 -54.224000
2.105531 16.588692 -0.809054 -149.671251 74.091242 -122.493965 -14.819249 0.022216 -3.667560 -4.994950 6.113025 -24.413763 0.804274 3.289686 58.662761 3.381309 21.632344 -0.350495 2.751900 -0.000000 -12.664200 5.220253 -1.092181 0.533706 11.986289 10.975455 -44.385610 2.875578 -1.994123 33.033088 0.131527 2.838071 -5.574652 -0.023800 -0.000000 -54.651500
2.252168 16.643251 -0.845135 -151.453285 73.709246 -123.942873 -14.768451 -0.064809 -3.647641 -5.473268 6.120584 -26.140001 0.828387 3.376996 59.951119 3.491722 22.276331 -0.870074 2.687601 -0.000000 -11.596300 5.322315 -1.093782 0.487040 11.792274 10.433541 -43.921055 2.858788 -1.945098 32.513684 0.161144 2.825015 -4.904854 -0.023600 0.000000 -55.151800
2.396225 16.702125 -0.883184 -153.044142 73.370719 -125.203532 -14.699300 -0.148726 -3.626227 -5.994488 6.089641 -27.837853 0.840470 3.452348 61.023518 3.540093 22.487947 -1.390564 2.549500 0.000000 -10.959000 5.434583 -1.095943 0.426192 11.595251 9.855642 -43.457537 2.848447 -1.902350 31.958738 0.211719 2.914197 -4.130490 -0.011400 0.000000 -55.725900
2.537741 16.764735 -0.923204 -154.431031 73.074478 -126.282783 -14.615776 -0.232650 -3.609923 -6.532651 6.040439 -29.478787 0.840045 3.515538 61.866920 3.530819 22.306524 -1.880424 2.364400 0.000001 -10.694000 5.550515 -1.099738 0.348180 11.410203 9.259994 -42.961969 2.845900 -1.863867 31.367904 0.275109 3.078040 -3.300986 0.013800 0.000001 -56.373500
2.676857 16.830400 -0.965011 -155.616056 72.817457 -127.200258 -14.520896 -0.319207 -3.604057 -7.064469 5.990316 -31.035562 0.826300 3.566374 62.469314 3.471815 21.795100 -2.313142 2.159800 -0.000001 -10.774500 5.665013 -1.105728 0.251489 11.246045 8.664397 -42.401002 2.851553 -1.826804 30.732342 0.344013 3.287866 -2.452571 0.051501 -0.000000 -57.092700
2.813925 16.898375 -1.008373 -156.613746 72.594566 -127.984218 -14.417120 -0.409976 -3.611686 -7.572118 5.953517 -32.486806 0.798412 3.604718 62.822684 3.374185 21.035677 -2.672189 1.958000 -0.000000 -11.179300 5.774629 -1.114127 0.136484 11.105054 8.083121 -41.744872 2.864839 -1.788005 30.038600 0.412720 3.517495 -1.605893 0.099500 0.000000 -57.877899
2.949534 16.967823 -1.053038 -157.453571 72.399170 -128.671509 -14.305523 -0.505503 -3.633719 -8.044877 5.939987 -33.818844 0.755796 3.630311 62.924538 3.251325 20.121481 -2.954091 1.773800 0.000000 -11.867600 5.878263 -1.124720 0.005502 10.983058 7.526425 -40.972837 2.884260 -1.744656 29.272388 0.477429 3.746468 -0.767166 0.155200 0.000000 -58.718900
3.084292 17.037842 -1.098736 -158.172511 72.224166 -129.301705 -14.186872 -0.604652 -3.668301 -8.480127 5.955524 -35.027817 0.698121 3.643219 62.780677 3.117503 19.146983 -3.174723 1.612200 -0.000000 -12.727001 5.976306 -1.136841 -0.137249 10.870438 6.998645 -40.075681 2.907619 -1.694685 28.423827 0.536266 3.962046 0.068598 0.216300 -0.000001 -59.599500
3.219040 17.107528 -1.145225 -158.817174 72.061905 -129.916044 -14.060353 -0.705780 -3.711904 -8.882109 6.000227 -36.119625 0.625487 3.643372 62.403541 2.986045 18.197248 -3.359522 1.472800 0.000000 -13.624700 6.071172 -1.149677 -0.286465 10.754978 6.499973 -39.057606 2.932349 -1.637204 27.488235 0.588908 4.159462 0.914122 0.282000 -0.000000 -60.498600
3.354577 17.175921 -1.192440 -159.430575 71.903810 -130.547153 -13.925457 -0.806220 -3.758313 -9.259474 6.068500 -37.109965 0.538321 3.631002 61.813162 2.867440 17.336438 -3.545131 1.350100 -0.000000 -14.389300 6.165600 -1.162629 -0.435703 10.624045 6.026584 -37.935856 2.955870 -1.572497 26.470360 0.636130 4.340807 1.784694 0.352600 0.000000 -61.393600
3.491631 17.242225 -1.240222 -160.058078 71.743265 -131.227676 -13.781043 -0.902449 -3.800481 -9.623142 6.150551 -38.017161 0.437200 3.606443 61.032745 2.768211 16.602008 -3.767085 1.237200 -0.000000 -14.879300 6.263233 -1.174963 -0.579081 10.466126 5.571167 -36.735621 2.975600 -1.502004 25.383551 0.679234 4.513558 2.693587 0.430200 -0.000001 -62.263100
3.630929 17.305614 -1.288604 -160.732171 71.573154 -131.971876 -13.626956 -0.991922 -3.830283 -9.982110 6.231446 -38.867506 0.322961 3.570284 60.087629 2.690703 16.002637 -4.052766 1.127300 0.000000 -15.026000 6.366242 -1.186586 -0.711321 10.275001 5.126582 -35.492425 2.989742 -1.427899 24.249029 0.719421 4.686410 3.648496 0.517200 0.000000 -63.091800
3.772857 17.365444 -1.337849 -161.468185 71.384971 -132.780021 -13.463869 -1.072459 -3.839744 -10.341584 6.295082 -39.683328 0.196686 3.522888 59.000897 2.633459 15.521740 -4.418162 1.014501 0.000000 -14.830700 6.475878 -1.198038 -0.828720 10.048961 4.684849 -34.240599 2.997321 -1.352868 23.093937 0.757543 4.868258 4.648618 0.616400 0.000000 -63.871800
3.917723 17.421217 -1.388144 -162.271991 71.173777 -133.642592 -13.292959 -1.142915 -3.822065 -10.701444 6.325555 -40.485537 0.059210 3.464820 57.791459 2.592228 15.124433 -4.866971 0.894500 -0.000000 -14.359200 6.592014 -1.210020 -0.929560 9.792245 4.239601 -33.013258 2.998133 -1.279449 21.947454 0.793796 5.064661 5.683791 0.729400 0.000001 -64.603399
4.065539 17.472510 -1.439865 -163.131739 70.933940 -134.539805 -13.116192 -1.202748 -3.771820 -11.056932 6.309910 -41.286236 -0.088560 3.396250 56.472400 2.561100 14.766601 -5.392366 0.765100 -0.000000 -13.706900 6.713315 -1.223706 -1.013732 9.513605 3.785522 -31.834991 2.992856 -1.209876 20.838208 0.827808 5.277151 6.735531 0.856501 -0.000000 -65.295200
4.216140 17.519070 -1.493300 -164.027583 70.662482 -135.445695 -12.936086 -1.252818 -3.685991 -11.397631 6.238462 -42.091642 -0.245945 3.317291 55.050060 2.533751 14.404024 -5.978552 0.627100 0.000000 -12.982700 6.836985 -1.240177 -1.083246 9.225778 3.320661 -30.721973 2.982809 -1.145561 19.789897 0.858700 5.501491 7.779209 0.995500 -0.000000 -65.961400
4.369256 17.560636 -1.548867 -164.931763 70.358261 -136.330065 -12.755554 -1.295269 -3.563868 -11.709246 6.105284 -42.901217 -0.412093 3.227698 53.524412 2.504622 14.001017 -6.601692 0.484800 0.000001 -12.304800 6.959138 -1.260333 -1.141603 8.943536 2.846428 -29.681396 2.969790 -1.087079 18.819021 0.885330 5.727893 8.787710 1.141500 -0.000000 -66.618700
4.524362 17.597072 -1.606968 -165.810888 70.020388 -137.165426 -12.577515 -1.332265 -3.406339 -11.977206 5.909277 -43.703557 -0.585775 3.126274 51.888172 2.469510 13.534769 -7.233632 0.345000 0.000000 -11.762500 7.076028 -1.285051 -1.192724 8.679796 2.365870 -28.706719 2.955632 -1.034295 17.933692 0.906576 5.943295 9.734737 1.287400 0.000000 -67.286100
4.681011 17.628230 -1.667886 -166.640037 69.650838 -137.932452 -12.404564 -1.366590 -3.216226 -12.186636 5.652867 -44.483905 -0.765320 3.011536 50.130312 2.426262 12.999051 -7.841940 0.216700 0.000001 -11.440500 7.183978 -1.314658 -1.240823 8.445550 1.885736 -27.785152 2.941854 -0.986294 17.132686 0.921434 6.131680 10.598232 1.424500 -0.000000 -67.979000
4.838707 17.654000 -1.731833 -167.399953 69.252692 -138.621009 -12.238687 -1.400798 -2.997142 -12.326021 5.340711 -45.224185 -0.948236 2.881391 48.237500 2.374820 12.403467 -8.393379 0.108400 0.000000 -11.387700 7.280226 -1.349155 -1.289478 8.247003 1.414404 -26.896709 2.929444 -0.941761 16.406870 0.929213 6.277572 11.362901 1.544000 0.000000 -68.710499
4.997103 17.674283 -1.798907 -168.081689 68.830204 -139.228253 -12.081341 -1.437258 -2.753540 -12.388043 4.979473 -45.908472 -1.131420 2.733761 46.198478 2.317155 11.771170 -8.858492 0.026600 0.000000 -11.616500 7.362727 -1.388137 -1.341201 8.086125 0.962844 -26.021289 2.918816 -0.899066 15.740542 0.929573 6.367493 12.022097 1.637800 0.000000 -69.484800
5.155868 17.689018 -1.869140 -168.683346 68.386924 -139.758831 -11.933128 -1.477324 -2.489328 -12.371831 4.576399 -46.524039 -1.311182 2.566506 44.006238 2.256704 11.133457 -9.215876 -0.025600 0.000000 -12.078300 7.430934 -1.431123 -1.396625 7.959363 0.541705 -25.138780 2.909801 -0.856649 15.114865 0.922623 6.393348 12.577226 1.701000 -0.000000 -70.302400
5.314939 17.698192 -1.942446 -169.214192 67.927090 -140.224458 -11.793701 -1.521378 -2.207874 -12.282157 4.138328 -47.065315 -1.483934 2.378112 41.661783 2.197549 10.522822 -9.456654 -0.049000 0.000000 -12.667400 7.485651 -1.477410 -1.454763 7.859792 0.161232 -24.234660 2.901622 -0.813215 14.510718 0.908863 6.352833 13.038229 1.731800 0.000000 -71.157499
